<?xml version="1.0" encoding="UTF-8"?>
<!DOCTYPE svg PUBLIC "-//W3C//DTD SVG 1.1//EN" "http://www.w3.org/Graphics/SVG/1.1/DTD/svg11.dtd">
<!-- Creator: CorelDRAW (Versão de avaliação) -->
<svg xmlns="http://www.w3.org/2000/svg" xml:space="preserve" width="210mm" height="297mm" version="1.1" style="shape-rendering:geometricPrecision; text-rendering:geometricPrecision; image-rendering:optimizeQuality; fill-rule:evenodd; clip-rule:evenodd"
viewBox="0 0 21000 29700"
 xmlns:xlink="http://www.w3.org/1999/xlink"
 xmlns:xodm="http://www.corel.com/coreldraw/odm/2003">
 <defs>
  <style type="text/css">
   <![CDATA[
    .fil4 {fill:#61433C}
    .fil0 {fill:#572D17}
    .fil2 {fill:#A7762D}
    .fil1 {fill:#A7762D}
    .fil3 {fill:#F3E0E0}
    .fil5 {fill:#572D17;fill-rule:nonzero}
    .fil6 {fill:#A7762D;fill-rule:nonzero}
   ]]>
  </style>
 </defs>
 <g id="Camada_x0020_1">
  <metadata id="CorelCorpID_0Corel-Layer"/>
  <path class="fil0" d="M6064.1 13459.68c-81.08,-135.27 -4.66,-97.8 123.49,-3.61 -354.65,-549.89 417.59,-733.57 1307.21,-879.1 -799.08,-89.46 -1611.07,-118.54 -2464,43.39 -1387.26,-789.95 -2587.35,-1632.4 -3079.07,-2673.71 3.7,117.44 63.05,281.99 169.85,486.72 -152.27,-169.64 -285.8,-352.36 -358.66,-577.58 716.24,2095.89 2823.12,2397.48 4301.18,3603.89zm-3134.84 427.2c78.13,369.69 307.54,819.45 586.16,1295.28 -1010.51,-247.79 -1570.37,-674.3 -1475.83,-1021.42 45.2,-166 339.31,-519.89 889.67,-273.86zm-933.42 -2772.12c-323.87,-403.47 -557.69,-902.49 -288.7,-1935.12 -73.02,-155.94 -770.37,-436.08 -1003.59,105.83 -678.93,1577.48 2745.88,2793.25 3639.48,3512.17 -252.18,225.8 -564.7,380.45 -753.89,472.1 -453.68,-257.74 -566.22,-310.28 -362.19,-817.94 -106.55,100.73 -222.49,244.39 -230.45,458.62 -109.46,-182.1 -47.5,-365.29 129.03,-543.37 -377.83,88.25 -243.74,958.13 -249.19,1245.95 -149.36,-3.98 -710.31,-299.92 -1084.31,-37.75 -416.66,292.1 -342.19,989.27 104.87,1268.08 547.6,341.53 1357.17,517.81 2020.61,850.55 278.62,276.16 928.94,852.45 1500.58,981.83 -1413.54,-1005.81 -2250.68,-2168.83 -2303.79,-3545.69 1083.84,957.48 5198.09,1068.08 6774.58,497.43 -259.75,56.78 -399.74,76.24 -446.14,66.56 116.57,-25.08 229.46,-62.28 335.51,-122.33 -1248.22,235.47 -2473.66,299.43 -3672.67,202.81 -577.03,-951.2 -3436.63,-1959.84 -4109.74,-2659.73z"/>
  <path class="fil1" d="M7488.14 13302.97l390.3 -182.49 -170.94 256.16c1049.93,-773 2148.3,-1830.01 1336.97,-3172.35 -314.23,-519.9 -846.97,-627.41 -1315.09,-638.5 -1033.18,-24.49 -2128.92,718.79 -2937.87,708.57 -1631.84,-102.19 -1593.58,-1660.4 -600.88,-2802.4 -111.53,43.96 -259.46,149.84 -448.46,325.48 81.66,-162.35 192.13,-301.63 312.53,-432.97 -1292.55,953.72 -1262.52,2256.99 -540.67,2972.83 1244.46,1234.09 2667.14,-128.9 4358.67,-118.56 1569.6,9.59 507.57,2475.77 -384.56,3084.23z"/>
  <path class="fil2" d="M1917.62 15361.86c-109.99,18.57 -353.15,130.32 -502.29,275.14 91.65,-191.36 193.58,-245.88 294.44,-345.06 -288.17,138.23 -606.31,332.41 -881.75,583.92 -305.92,279.35 -504.48,655.21 -185.6,1291.02 412.59,822.66 1863.26,1455.89 4056.97,1836.34 1708.42,296.28 3308.85,211.62 4826.65,56.04 -1193.35,25.48 -11356.64,-771.5 -7704.06,-3619.83 16.43,-12.81 78.64,-64.67 95.64,-77.57zm921.23 379.4c654.21,174.58 1054.23,220.96 1396.09,589.82 3.12,-46.53 -49.82,-88.46 -74.73,-132.69 76.13,57.06 161.43,81.14 238.71,224.54 -32.58,-391.53 -1653.63,-805.61 -2099.37,-1065.59 -431.29,-251.46 -710.9,-389.65 -970.13,-857.42 -42.23,-76.21 -62.86,-163.13 -68.21,-262.13 -40.83,-756.26 728.43,-830.64 1287.99,-903.07 -2584.07,-212.05 -1681.74,1880.41 289.65,2406.54zm-1332.33 -2215.35c-281.87,192.35 -404.21,463.54 -328.6,880.73 -192.8,-394.35 -47.77,-676.08 328.6,-880.73z"/>
  <path class="fil3" d="M1353.74 7361.58c1.69,1.68 5.04,-7.43 5.05,-5.06l0.01 0.01c-0.34,0.33 -6.74,3.36 -5.06,5.05z"/>
  <g id="_987238256">
   <path class="fil4" d="M16874.78 15472.14c-31.97,85.83 -78.73,166.57 -138.99,239.94 -74.74,91.03 -159.16,169.85 -250.9,234.26 -88.38,62.04 -179.6,108.04 -271.13,136.71 -90.83,28.46 -177.14,38.35 -256.53,29.38 -50.18,-5.68 -96.25,-18.8 -137.71,-39.18 -20.13,-9.89 -19.06,-38.86 1.72,-47.31 71.77,-29.17 135.59,-64.01 190.53,-104.08 118.52,-86.41 199.09,-199.21 232.95,-326.21 16.69,-62.53 22.13,-128.8 27.37,-192.91 4.5,-54.79 9.14,-111.46 20.87,-163.97 23.78,-106.36 80.54,-202.07 164.18,-276.79 72.23,-64.54 160.99,-110.39 258.88,-134.09 22.44,-5.43 46.03,1.22 62.32,17.58 41.92,42.09 75.31,91.95 99.54,148.76 29.64,69.48 44.43,146.42 44,228.67 -0.46,82.71 -16.3,166.57 -47.1,249.24zm-1279.02 117.93c18.8,-193.51 114.5,-404.03 269.46,-592.78 60.26,-73.38 130.35,-134.97 208.32,-183.04 75.09,-46.3 154.26,-78.16 235.31,-94.7 41.43,-8.45 82.27,-12.68 122.22,-12.68 37.75,0 74.72,3.77 110.64,11.33 35.85,7.54 69.94,18.72 102.06,33.44 21.43,9.82 19.95,40.81 -2.31,48.55 -80.55,27.99 -153.93,70.7 -216.09,126.24 -91.1,81.39 -152.98,185.8 -178.94,301.94 -12.45,55.73 -17.23,114.06 -21.86,170.49 -5.07,62 -10.33,126.1 -25.91,184.5 -31.04,116.34 -105.37,220.07 -214.98,299.97 -59.94,43.72 -131.44,80.98 -213.08,111.11 -27.14,10.02 -57.59,1.78 -76.03,-20.52 -79.01,-95.52 -113.86,-228.94 -98.81,-383.85z"/>
   <path class="fil1" d="M15810.65 14814.25c-75.1,-46.29 -154.27,-78.16 -235.31,-94.7 -41.44,-8.45 -82.27,-12.68 -122.23,-12.68 -37.75,0 -74.72,3.78 -110.63,11.32 -35.86,7.55 -69.95,18.73 -102.07,33.45 -21.42,9.82 -19.94,40.81 2.31,48.55 80.56,28 153.93,70.69 216.09,126.24 91.11,81.39 152.98,185.8 178.94,301.93 3.61,16.13 6.57,32.49 9.07,48.95 46.96,-103.37 111.3,-205.92 190.77,-302.71 24.42,-29.76 50.4,-57.65 77.84,-83.56 -33.04,-28.48 -68.04,-54.13 -104.78,-76.79zm-6.9 1291.1c-22.11,-10.88 -35.32,-32.91 -34.45,-57.52 0.2,-5.72 1.15,-11.25 2.78,-16.48 -8.17,2.04 -16.55,3.06 -25.02,3.06 -31.05,0 -60.23,-13.73 -80.04,-37.69 -42.78,-51.72 -73.66,-113.45 -91.75,-183.51 -17.89,-69.26 -22.98,-145.5 -15.1,-226.59 6.85,-70.62 23.53,-143.32 49.2,-216.37 -3.87,-44.43 -8.72,-89.29 -18.15,-131.48 -23.77,-106.36 -80.54,-202.07 -164.17,-276.79 -72.23,-64.54 -161,-110.4 -258.89,-134.09 -22.44,-5.43 -46.03,1.23 -62.32,17.58 -41.91,42.09 -75.31,91.95 -99.53,148.76 -29.65,69.49 -44.44,146.42 -44,228.66 0.46,82.72 16.3,166.58 47.09,249.25 31.98,85.83 78.75,166.57 139,239.95 74.74,91.02 159.15,169.83 250.9,234.25 88.37,62.04 179.59,108.04 271.13,136.71 52.05,16.31 102.62,26.51 151.25,30.57 -6.06,-2.61 -12.05,-5.38 -17.93,-8.27z"/>
  </g>
  <path class="fil1" d="M3415.99 16549.28c-54.06,-197.81 -45.59,-338.34 11.91,-433.89 -112.28,801.1 889.98,971.7 2161.24,1191.11 -947.51,-31.1 -2577.7,-168.03 -2329.71,-1249.75 6.51,282.97 57.1,451.26 156.56,492.53z"/>
  <path class="fil1" d="M4429.21 11896.94c1299.08,-331.23 2541.34,-341.29 3732.98,-63.66 -1030.39,-99.6 -2129.13,-130.82 -3482.28,92.34 29.98,-31.22 82.62,-52.55 153.1,-66.07 -87.9,-8.15 -229.84,7.57 -403.8,37.39z"/>
  <path class="fil5" d="M6663.64 14996.86c-54.31,0 -103.23,10.8 -146.11,32.4 -42.25,21.28 -78.14,52.09 -107.37,92.11 -29.22,40.03 -51.14,88.63 -65.43,146.12 -14.62,57.18 -21.92,121.34 -21.92,192.18 0,96.56 11.75,178.84 34.94,246.49 23.51,67.98 60.67,119.76 111.49,155.65 50.83,35.58 115.63,53.37 194.4,53.37 55.91,0 111.5,-6.36 166.77,-19.06 55.27,-12.71 115.31,-30.5 180.11,-53.37l0 241.73c-59.72,24.46 -118.8,42.25 -177.25,53.69 -58.45,11.43 -123.88,17.15 -196.63,17.15 -139.44,0 -254.75,-28.91 -345.6,-86.4 -90.84,-58.13 -157.87,-139.45 -201.07,-244.27 -42.88,-105.14 -64.48,-227.44 -64.48,-366.89 0,-102.91 13.98,-197.26 41.61,-282.7 27.95,-86.09 68.93,-160.1 122.93,-222.04 54,-62.58 120.71,-110.86 200.12,-145.17 79.41,-34.62 170.58,-51.77 273.49,-51.77 67.35,0 135.01,8.57 202.98,26.05 67.98,17.15 133.1,40.34 195.36,69.56l-93.39 234.42c-50.83,-24.14 -101.97,-45.1 -153.74,-62.89 -51.46,-17.47 -101.97,-26.36 -151.21,-26.36zm1040.62 78.14c140.08,0 247.13,30.17 321.14,90.53 74.33,60.35 111.5,152.79 111.5,276.99l0 693.74 -198.22 0 -55.27 -141.04 -7.3 0c-29.54,36.85 -60.04,67.35 -90.85,91.8 -31.13,23.83 -66.71,41.3 -106.73,52.1 -40.02,10.8 -89.26,16.2 -147.71,16.2 -60.67,0 -115.62,-11.75 -164.86,-35.26 -48.91,-23.82 -87.35,-60.04 -115.3,-108.64 -27.96,-48.91 -41.93,-110.86 -41.93,-186.14 0,-110.22 38.75,-191.86 116.26,-244.59 77.5,-52.73 193.76,-81.63 348.46,-86.4l181.69 -6.35 0 -45.42c0,-54.64 -14.61,-94.66 -43.52,-120.08 -28.27,-25.41 -67.97,-38.11 -119.11,-38.11 -50.51,0 -99.75,7.3 -148.35,21.91 -48.28,14.62 -96.56,32.72 -144.53,54.32l-93.7 -192.49c55.9,-29.23 117.85,-52.1 185.82,-68.61 67.66,-16.2 138.5,-24.46 212.51,-24.46zm40.02 582.88c-91.48,2.54 -155.01,19.06 -190.9,49.87 -35.26,30.18 -53.05,70.2 -53.05,119.44 0,43.52 12.7,74.33 38.43,92.75 25.42,18.11 58.45,27.32 99.11,27.32 60.67,0 112.13,-18.11 153.74,-54 42.25,-36.21 63.53,-87.35 63.53,-153.43l0 -85.76 -110.86 3.81zm1259.48 -348.78l-245.54 0 0 827.16 -283.98 0 0 -827.16 -156.28 0 0 -137.54 156.28 -75.6 0 -76.55c0,-88.94 14.93,-157.87 44.79,-206.47 29.86,-48.92 72.42,-83.54 127.38,-103.87 55.58,-20.33 121.02,-30.5 195.67,-30.5 56.22,0 106.73,4.45 151.52,13.34 44.78,8.58 81.31,18.74 109.27,30.18l-72.11 207.74c-21.6,-6.35 -45.11,-12.39 -70.52,-17.79 -25.73,-6.03 -54.95,-8.89 -87.67,-8.89 -39.39,0 -68.29,12.07 -87.03,36.21 -18.11,24.46 -27.32,54.95 -27.32,91.48l0 65.12 245.54 0 0 213.14zm591.14 -232.2c96.25,0 179.16,18.43 248.41,55.27 69.56,36.53 123.24,89.9 161.36,160.1 38.44,69.56 57.5,155.33 57.5,256.66l0 137.22 -671.2 0c2.55,80.05 26.37,142.94 71.16,189 45.42,45.74 108,68.62 188.05,68.62 67.34,0 128.33,-6.68 182.96,-20.02 54.64,-13.34 111.18,-33.99 169.94,-61.94l0 219.18c-51.14,25.41 -104.82,44.15 -161.68,56.22 -56.22,12.07 -124.52,18.11 -204.57,18.11 -104.18,0 -196.3,-19.38 -276.35,-58.13 -80.05,-38.75 -142.94,-97.52 -189,-176.3 -45.42,-78.77 -68.29,-177.88 -68.29,-297.31 0,-121.98 20.64,-223.31 61.62,-303.99 41.61,-80.69 99.42,-141.36 172.8,-182.02 73.69,-40.34 159.46,-60.67 257.29,-60.67zm1.91 201.71c-54.63,0 -100.06,17.79 -136.27,53.68 -35.89,35.26 -57.18,90.53 -63.85,165.5l398.33 0c0,-41.93 -7.3,-79.42 -21.91,-112.13 -14.62,-33.36 -36.53,-59.4 -65.76,-78.14 -28.9,-19.38 -65.75,-28.91 -110.54,-28.91zm386.9 -583.52c-17.47,18.11 -40.98,39.71 -70.52,65.12 -29.23,25.73 -60.67,52.41 -94.66,80.04 -33.35,27.96 -66.39,54.32 -99.11,79.1 -32.08,25.09 -60.35,45.74 -84.49,61.94l-188.37 0 0 -24.46c20.01,-24.46 43.84,-52.73 71.16,-84.81 27.63,-32.72 54.63,-66.39 81.31,-101.01 26.69,-34.94 48.92,-66.71 66.71,-94.98l317.97 0 0 19.06zm1227.39 1460.23c-102.92,0 -190.59,-18.74 -263.33,-56.22 -72.11,-37.49 -127.38,-95.62 -165.5,-174.71 -38.12,-78.78 -57.17,-179.79 -57.17,-302.72 0,-127.38 21.6,-230.93 64.48,-310.98 43.52,-80.05 103.55,-138.81 180.1,-176.61 76.88,-38.12 165.5,-57.18 266.19,-57.18 70.84,0 132.78,6.99 185.51,20.65 52.73,13.98 98.79,30.49 138.18,49.55l-83.54 219.18c-44.48,-17.79 -86.09,-32.4 -124.84,-43.84 -38.75,-11.43 -77.19,-17.15 -115.31,-17.15 -49.55,0 -90.84,11.75 -124.2,35.26 -32.71,23.51 -57.17,58.45 -73.06,105.14 -15.88,46.06 -23.82,104.19 -23.82,174.07 0,68.62 8.58,125.47 25.73,170.9 17.47,44.79 42.56,78.46 75.28,100.69 33.36,21.92 73.38,33.04 120.07,33.04 60.04,0 112.77,-7.94 158.19,-23.51 45.43,-15.88 89.9,-37.8 133.41,-65.75l0 242.05c-43.51,27.95 -88.94,47.96 -136.58,60.03 -47.33,12.07 -107.37,18.11 -179.79,18.11zm1501.84 -541.27c0,87.03 -11.75,163.9 -35.26,230.61 -23.82,66.39 -57.49,123.25 -101.01,170.26 -43.84,46.37 -96.88,81.32 -159.14,105.14 -61.94,23.51 -132.46,35.26 -210.92,35.26 -72.74,0 -139.77,-11.75 -201.39,-35.26 -61.94,-23.82 -114.99,-58.77 -159.78,-104.82 -44.15,-46.7 -78.77,-103.56 -103.55,-170.58 -24.78,-67.34 -37.16,-144.21 -37.16,-230.93 0,-114.99 20.32,-212.19 60.67,-291.6 40.97,-79.41 99.74,-140.09 175.66,-182.02 75.91,-42.24 166.13,-63.21 270.63,-63.21 98.47,0 185.19,20.97 259.84,62.58 74.65,41.93 133.73,102.92 176.61,182.65 43.2,79.41 64.8,176.61 64.8,291.92zm-718.52 0c0,68.61 7.31,126.1 21.92,172.8 14.61,46.06 37.8,81 69.25,104.5 32.08,23.19 73.37,34.94 124.2,34.94 51.14,0 92.11,-11.75 122.93,-34.94 31.13,-23.5 54,-58.44 68.29,-104.5 14.93,-46.7 22.55,-103.87 22.55,-172.17 0,-68.93 -7.62,-126.1 -22.55,-171.85 -14.29,-45.74 -37.48,-80.04 -69.25,-103.23 -31.44,-22.87 -72.74,-34.31 -123.24,-34.31 -75.29,0 -129.92,25.73 -163.91,77.19 -33.35,51.46 -50.19,128.65 -50.19,231.57zm2174.62 -537.15c118.17,0 207.43,30.18 267.46,90.53 60.68,60.04 90.85,156.92 90.85,290.33l0 678.5 -283.98 0 0 -608.61c0,-74.02 -12.7,-129.92 -38.11,-167.4 -25.42,-37.81 -64.8,-56.86 -118.49,-56.86 -74.64,0 -128.01,26.68 -160.09,80.04 -31.77,53.37 -47.65,130.56 -47.65,231.57l0 521.26 -283.66 0 0 -608.3c0,-49.23 -5.72,-90.21 -17.15,-123.24 -11.75,-33.04 -28.91,-58.13 -51.78,-75.29 -22.55,-17.47 -52.09,-26.04 -88.3,-26.04 -51.46,0 -92.44,13.34 -122.93,40.02 -30.5,26.68 -52.1,65.44 -64.8,115.94 -12.71,50.51 -19.06,112.77 -19.06,187.1l0 489.81 -284.3 0 0 -1040.3 217.27 0 38.76 133.1 14.93 0c21.6,-35.26 48.28,-64.17 80.04,-86.72 31.45,-22.24 66.71,-38.75 105.46,-49.24 38.76,-10.8 77.83,-16.2 117.21,-16.2 76.56,0 141.36,12.39 194.72,37.17 53.37,24.46 94.03,62.57 121.98,114.99l25.09 0c31.45,-53.37 75.6,-92.12 132.15,-115.95 56.86,-24.14 114.98,-36.21 174.38,-36.21z"/>
  <path class="fil6" d="M6252.89 16904.56c0,42.21 -1.32,82.84 -4.23,122.15 -2.37,38.78 -4.76,66.22 -6.87,82.05l12.69 0c19.29,-29.28 41.5,-53.29 66.61,-72.02 25.38,-18.47 53.66,-32.19 84.85,-40.89 31.2,-8.97 64.23,-13.46 99.13,-13.46 62.38,0 116.84,11.08 163.36,33.24 46.52,22.16 82.73,56.46 108.37,102.63 26.17,46.17 39.12,106.32 39.12,180.45l0 563.52 -236.04 0 0 -505.22c0,-62.52 -11.38,-109.22 -34.1,-140.08 -22.47,-30.87 -57.89,-46.44 -105.74,-46.44 -47.84,0 -85.11,10.82 -112.34,32.72 -26.7,21.89 -45.99,54.34 -57.63,96.82 -11.36,42.47 -17.18,94.45 -17.18,155.92l0 406.28 -236.58 0 0 -1203.02 236.58 0 0 245.35zm1592.36 523.95c0,72.29 -9.79,136.13 -29.35,191.53 -19.82,55.14 -47.84,102.37 -84.05,141.41 -36.49,38.52 -80.63,67.54 -132.44,87.33 -51.54,19.52 -110.23,29.28 -175.51,29.28 -60.54,0 -116.31,-9.76 -167.59,-29.28 -51.55,-19.79 -95.69,-48.81 -132.97,-87.07 -36.74,-38.78 -65.54,-86 -86.16,-141.67 -20.62,-55.93 -30.94,-119.77 -30.94,-191.79 0,-95.51 16.93,-176.24 50.49,-242.19 34.1,-65.96 83,-116.35 146.18,-151.17 63.18,-35.09 138.25,-52.5 225.22,-52.5 81.93,0 154.1,17.41 216.22,51.97 62.12,34.83 111.28,85.48 146.97,151.7 35.95,65.95 53.93,146.68 53.93,242.45zm-597.93 0c0,56.99 6.08,104.74 18.24,143.52 12.15,38.25 31.45,67.27 57.62,86.79 26.7,19.26 61.06,29.02 103.36,29.02 42.55,0 76.65,-9.76 102.29,-29.02 25.91,-19.52 44.94,-48.54 56.83,-86.79 12.43,-38.78 18.78,-86.27 18.78,-142.99 0,-57.25 -6.35,-104.74 -18.78,-142.73 -11.89,-37.99 -31.19,-66.48 -57.62,-85.74 -26.17,-19 -60.53,-28.49 -102.56,-28.49 -62.65,0 -108.11,21.37 -136.4,64.11 -27.75,42.73 -41.76,106.84 -41.76,192.32zm1809.63 -446.12c98.33,0 172.61,25.06 222.58,75.19 50.48,49.86 75.59,130.33 75.59,241.13l0 563.52 -236.32 0 0 -505.48c0,-61.47 -10.57,-107.9 -31.72,-139.03 -21.14,-31.4 -53.91,-47.23 -98.59,-47.23 -62.12,0 -106.53,22.16 -133.23,66.49 -26.43,44.32 -39.65,108.43 -39.65,192.32l0 432.93 -236.05 0 0 -505.22c0,-40.89 -4.75,-74.92 -14.27,-102.36 -9.78,-27.43 -24.05,-48.28 -43.09,-62.52 -18.76,-14.51 -43.34,-21.64 -73.48,-21.64 -42.82,0 -76.92,11.08 -102.3,33.25 -25.38,22.16 -43.35,54.34 -53.92,96.29 -10.57,41.95 -15.86,93.66 -15.86,155.39l0 406.81 -236.58 0 0 -864.01 180.81 0 32.24 110.54 12.42 0c17.98,-29.28 40.18,-53.29 66.62,-72.02 26.16,-18.47 55.51,-32.19 87.75,-40.89 32.26,-8.97 64.77,-13.46 97.54,-13.46 63.71,0 117.63,10.29 162.04,30.87 44.41,20.31 78.25,51.97 101.51,95.5l20.88 0c26.17,-44.32 62.91,-76.51 109.96,-96.29 47.32,-20.05 95.7,-30.08 145.12,-30.08zm897.68 0c80.09,0 149.09,15.3 206.71,45.9 57.89,30.34 102.56,74.67 134.28,132.97 31.98,57.78 47.84,129.01 47.84,213.17l0 113.97 -558.53 0c2.11,66.48 21.94,118.72 59.21,156.97 37.8,37.99 89.88,56.99 156.49,56.99 56.04,0 106.79,-5.55 152.25,-16.63 45.47,-11.08 92.52,-28.22 141.42,-51.44l0 182.04c-42.55,21.1 -87.23,36.67 -134.54,46.69 -46.79,10.03 -103.62,15.04 -170.23,15.04 -86.7,0 -163.36,-16.09 -229.97,-48.28 -66.62,-32.19 -118.95,-80.99 -157.29,-146.42 -37.79,-65.43 -56.83,-147.74 -56.83,-246.94 0,-101.3 17.19,-185.46 51.28,-252.47 34.63,-67.01 82.74,-117.4 143.8,-151.17 61.33,-33.51 132.7,-50.39 214.11,-50.39zm1.59 167.53c-45.47,0 -83.27,14.77 -113.4,44.58 -29.87,29.29 -47.58,75.19 -53.13,137.45l331.47 0c0,-34.82 -6.08,-65.95 -18.23,-93.13 -12.17,-27.7 -30.4,-49.33 -54.72,-64.9 -24.06,-16.09 -54.72,-24 -91.99,-24zm1070.55 -167.53c93.05,0 167.59,25.06 223.63,75.19 56.04,49.86 84.06,130.33 84.06,241.13l0 563.52 -236.05 0 0 -505.22c0,-61.99 -11.1,-108.69 -33.3,-139.82 -22.21,-31.13 -57.63,-46.7 -106.53,-46.7 -71.64,0 -120.8,24.54 -147.5,73.87 -26.44,48.81 -39.65,119.25 -39.65,211.06l0 406.81 -236.58 0 0 -864.01 180.81 0 31.72 110.54 12.94 0c19.04,-29.28 42.3,-53.29 69.53,-72.02 27.75,-18.47 58.41,-32.19 92.25,-40.89 33.84,-8.97 68.72,-13.46 104.67,-13.46zm1154.62 623.14c0,58.31 -13.75,107.64 -41.5,148.53 -27.23,40.37 -68.47,71.24 -123.44,92.34 -54.99,21.11 -123.18,31.66 -204.6,31.66 -60.27,0 -112.08,-3.96 -155.43,-11.87 -43.62,-7.65 -86.96,-20.58 -130.32,-38.78l0 -194.7c46.79,21.1 97.01,38.51 150.68,52.23 53.92,13.46 101.49,20.32 143,20.32 46.25,0 79.3,-6.86 99.13,-20.32 19.56,-13.72 29.33,-31.66 29.33,-53.82 0,-14.51 -3.96,-27.7 -11.89,-39.31 -7.66,-11.6 -24.85,-24.79 -51.55,-39.57 -26.43,-15.04 -67.66,-34.03 -123.44,-57.25 -54.18,-22.95 -98.59,-45.9 -133.75,-68.59 -34.9,-22.95 -60.8,-50.39 -77.72,-82.31 -16.65,-32.19 -25.11,-72.55 -25.11,-121.36 0,-80.2 31.19,-140.35 93.57,-180.19 62.66,-40.1 145.66,-60.15 249.01,-60.15 53.92,0 105.2,5.28 153.58,15.83 48.9,10.55 99.12,27.96 150.67,51.97l-71.11 169.37c-42.29,-18.2 -82.47,-33.24 -120.79,-45.11 -38.07,-12.13 -76.66,-18.2 -115.52,-18.2 -34.9,0 -61.07,4.75 -78.51,14.24 -17.18,9.5 -25.9,23.75 -25.9,43.01 0,13.45 4.23,25.85 12.94,36.93 9.26,11.08 26.71,22.95 52.35,35.62 26.17,12.66 64.49,29.54 114.98,50.65 49.96,20.05 92.78,40.89 128.73,62.53 36.22,21.63 63.97,48.54 83.27,80.72 19.56,32.19 29.34,74.14 29.34,125.58zm870.71 272.53c-96.48,0 -174.99,-37.73 -235.78,-113.18 -60.53,-75.45 -90.93,-186.52 -90.93,-333.2 0,-148.01 30.66,-259.6 91.72,-335.32 61.32,-75.98 141.68,-113.97 241.07,-113.97 41.5,0 77.98,5.54 109.71,16.62 31.71,11.08 58.94,26.12 81.68,45.11 22.72,18.74 42.02,40.37 58.15,64.64l7.66 0c-3.17,-16.88 -6.87,-41.42 -11.37,-73.61 -3.96,-32.18 -6.07,-65.16 -6.07,-98.93l0 -277.01 236.31 0 0 1203.02 -180.8 0 -45.73 -112.39 -9.78 0c-14.54,23.22 -33.32,44.59 -56.04,64.11 -22.73,19.52 -49.44,35.09 -80.37,46.7 -30.66,11.61 -67.14,17.41 -109.43,17.41zm82.47 -188.1c65.56,0 111.56,-19.26 137.72,-57.78 26.7,-38.52 40.45,-96.3 41.5,-173.33l0 -25.59c0,-84.42 -12.94,-148.8 -39.12,-193.12 -25.64,-44.32 -73.48,-66.48 -143.26,-66.48 -51.82,0 -92.52,22.42 -122.39,67.27 -29.34,44.59 -44.15,109.23 -44.15,193.91 0,84.42 14.81,148 44.15,191.01 29.87,42.74 71.64,64.11 125.55,64.11zm1003.94 -707.57c80.1,0 149.09,15.3 206.72,45.9 57.89,30.34 102.56,74.67 134.28,132.97 31.98,57.78 47.84,129.01 47.84,213.17l0 113.97 -558.54 0c2.12,66.48 21.95,118.72 59.22,156.97 37.79,37.99 89.87,56.99 156.48,56.99 56.04,0 106.79,-5.55 152.26,-16.63 45.47,-11.08 92.52,-28.22 141.41,-51.44l0 182.04c-42.55,21.1 -87.23,36.67 -134.54,46.69 -46.79,10.03 -103.62,15.04 -170.23,15.04 -86.7,0 -163.36,-16.09 -229.97,-48.28 -66.61,-32.19 -118.95,-80.99 -157.28,-146.42 -37.79,-65.43 -56.83,-147.74 -56.83,-246.94 0,-101.3 17.18,-185.46 51.28,-252.47 34.63,-67.01 82.74,-117.4 143.8,-151.17 61.33,-33.51 132.7,-50.39 214.1,-50.39zm1.6 167.53c-45.47,0 -83.27,14.77 -113.4,44.58 -29.87,29.29 -47.59,75.19 -53.14,137.45l331.48 0c0,-34.82 -6.08,-65.95 -18.24,-93.13 -12.16,-27.7 -30.4,-49.33 -54.71,-64.9 -24.06,-16.09 -54.72,-24 -91.99,-24z"/>
  <path class="fil5" d="M16202.27 17094.26c0,168 -32.13,308.42 -96.05,421.59 -63.92,112.82 -157.18,198.04 -279.78,255.33 -122.25,57.28 -269.3,85.92 -441.15,85.92l-422.99 0 0 -1496.69 469.1 0c156.48,0 292.35,27.94 407.61,84.17 115.27,55.89 204.69,137.97 268.26,246.6 63.22,107.93 95,242.41 95,403.08zm-329.03 8.03c0,-110.02 -16.06,-200.84 -47.85,-272.09 -32.13,-71.26 -79.99,-124 -143.9,-158.23 -63.23,-34.58 -141.12,-51.69 -233.33,-51.69l-169.75 0 0 974.85 135.87 0c155.43,0 270.7,-41.21 346.14,-123.29 75.1,-82.78 112.82,-205.73 112.82,-369.55zm1085.93 -410.06c105.84,0 197,20.26 273.15,60.77 76.49,40.17 135.52,98.85 177.43,176.05 42.27,76.49 63.22,170.8 63.22,282.22l0 150.89 -738.04 0c2.8,88.02 28.99,157.18 78.24,207.83 49.95,50.29 118.76,75.44 206.78,75.44 74.05,0 141.11,-7.33 201.19,-22 60.08,-14.67 122.25,-37.38 186.87,-68.11l0 241c-56.24,27.95 -115.27,48.55 -177.79,61.83 -61.82,13.27 -136.92,19.91 -224.94,19.91 -114.57,0 -215.86,-21.31 -303.88,-63.92 -88.02,-42.62 -157.18,-107.23 -207.83,-193.86 -49.94,-86.62 -75.09,-195.6 -75.09,-326.93 0,-134.12 22.7,-245.55 67.76,-334.27 45.76,-88.71 109.33,-155.43 190.01,-200.14 81.04,-44.36 175.34,-66.71 282.92,-66.71zm2.1 221.8c-60.08,0 -110.03,19.56 -149.85,59.03 -39.46,38.77 -62.87,99.54 -70.2,181.97l438 0c0,-46.1 -8.03,-87.32 -24.1,-123.29 -16.06,-36.68 -40.16,-65.32 -72.3,-85.93 -31.78,-21.31 -72.3,-31.78 -121.55,-31.78zm1815.24 -200.84l0 1143.91 -238.91 0 -42.26 -146.7 -16.77 0c-23.75,39.12 -54.14,70.9 -91.51,95.7 -36.68,24.1 -77.55,42.27 -122.25,54.14 -44.71,11.88 -90.82,17.82 -138.32,17.82 -81.04,0 -152.29,-14.67 -213.76,-44.01 -61.48,-29.34 -108.98,-74.75 -142.86,-136.22 -33.19,-61.83 -49.95,-141.47 -49.95,-238.92l0 -745.72 312.61 0 0 668.18c0,81.04 14.67,142.51 44.01,184.77 29.34,41.92 76.15,62.88 140.06,62.88 63.92,0 113.87,-14.67 149.5,-44.01 35.98,-29.69 61.12,-72.66 75.79,-128.19 14.67,-55.89 22.01,-124.35 22.01,-205.38l0 -538.25 312.61 0zm1125.06 804.05c0,77.2 -18.17,142.51 -54.84,196.65 -35.98,53.44 -90.47,94.31 -163.12,122.25 -72.65,27.95 -162.77,41.92 -270.35,41.92 -79.63,0 -148.09,-5.24 -205.38,-15.72 -57.63,-10.13 -114.91,-27.25 -172.2,-51.35l0 -257.77c61.83,27.94 128.19,51 199.1,69.16 71.25,17.81 134.12,26.89 188.96,26.89 61.13,0 104.79,-9.08 130.98,-26.89 25.85,-18.16 38.77,-41.92 38.77,-71.26 0,-19.21 -5.23,-36.67 -15.71,-52.04 -10.13,-15.37 -32.84,-32.83 -68.11,-52.39 -34.93,-19.91 -89.42,-45.06 -163.12,-75.8 -71.6,-30.38 -130.28,-60.77 -176.74,-90.81 -46.11,-30.39 -80.34,-66.72 -102.69,-108.98 -22.01,-42.61 -33.18,-96.05 -33.18,-160.67 0,-106.18 41.21,-185.82 123.64,-238.56 82.79,-53.1 192.46,-79.64 329.03,-79.64 71.26,0 139.02,6.98 202.94,20.96 64.62,13.97 130.98,37.02 199.09,68.81l-93.96 224.24c-55.88,-24.1 -108.97,-44.01 -159.62,-59.73 -50.3,-16.07 -101.29,-24.1 -152.64,-24.1 -46.1,0 -80.68,6.29 -103.74,18.86 -22.7,12.57 -34.23,31.44 -34.23,56.93 0,17.82 5.59,34.23 17.12,48.9 12.22,14.67 35.28,30.39 69.16,47.16 34.58,16.76 85.22,39.12 151.94,67.06 66.01,26.55 122.6,54.14 170.1,82.78 47.85,28.64 84.53,64.27 110.02,106.88 25.85,42.62 38.78,98.15 38.78,166.26z"/>
 </g>
</svg>
